<?xml version="1.0" standalone="no"?>
<!DOCTYPE svg PUBLIC "-//W3C//DTD SVG 20010904//EN"
 "http://www.w3.org/TR/2001/REC-SVG-20010904/DTD/svg10.dtd">
<svg version="1.0" xmlns="http://www.w3.org/2000/svg"
 width="600.000000pt" height="600.000000pt" viewBox="0 0 600.000000 600.000000"
 preserveAspectRatio="xMidYMid meet">
<g transform="translate(0.000000,600.000000) scale(0.100000,-0.100000)"
fill="#000000" stroke="none">
<path d="M2470 5203 c-142 -23 -292 -74 -404 -138 -287 -164 -476 -446 -525
-785 -19 -130 3 -400 45 -540 29 -100 88 -204 153 -270 47 -48 64 -74 76 -115
17 -58 18 -54 -39 -165 -38 -74 -149 -159 -207 -160 -9 0 -19 -6 -22 -13 -7
-18 -153 -205 -196 -249 l-35 -38 46 0 c100 0 377 58 576 122 35 11 65 18 66
17 2 -2 13 -35 26 -74 12 -38 42 -110 66 -160 23 -49 52 -116 64 -148 12 -31
26 -57 31 -57 12 0 12 17 -1 25 -5 3 -7 12 -4 19 3 7 -2 19 -11 26 -32 26 -13
30 28 5 70 -44 238 -123 299 -141 31 -10 68 -28 81 -40 24 -22 41 -25 64 -11
6 4 58 0 114 -8 57 -9 109 -13 116 -11 19 7 27 -13 12 -30 -7 -9 -13 -38 -13
-64 0 -41 -3 -50 -20 -52 -17 -3 -15 -5 10 -18 35 -18 45 -31 39 -48 -3 -7 -1
-11 4 -8 5 3 31 -1 57 -9 27 -8 50 -15 52 -15 1 0 6 0 11 0 15 0 155 -144 156
-160 0 -3 22 -27 48 -53 27 -26 46 -47 43 -47 -3 0 2 -8 12 -18 9 -11 20 -17
24 -15 4 2 9 -6 13 -17 4 -11 11 -18 16 -15 5 4 12 -1 15 -9 15 -40 123 -91
139 -66 3 4 15 6 27 2 13 -3 19 -1 15 5 -7 11 40 38 61 34 6 -1 12 3 12 9 0 6
4 9 9 5 6 -3 14 3 20 12 6 10 11 14 11 9 0 -5 7 -3 15 4 12 10 21 -3 56 -77
24 -48 42 -91 41 -96 -1 -4 2 -7 7 -7 17 0 37 -67 65 -226 7 -38 16 -75 20
-82 9 -15 -32 -95 -44 -87 -6 4 -10 2 -10 -3 0 -10 -84 -72 -97 -72 -4 0 -16
18 -26 40 -11 23 -23 37 -29 34 -7 -5 -8 -2 -4 5 5 7 0 18 -10 26 -11 8 -15
15 -11 15 4 0 -1 10 -12 22 -17 17 -18 24 -8 36 10 13 9 14 -10 3 -13 -6 -23
-9 -23 -5 0 3 -6 1 -13 -5 -8 -6 -17 -8 -20 -4 -4 3 -12 1 -20 -5 -12 -10 -41
-18 -92 -27 -11 -2 -20 -4 -20 -5 0 -9 -143 -15 -176 -8 -17 4 -47 32 -42 40
2 3 -10 16 -27 28 -17 12 -28 25 -25 29 2 5 -7 14 -20 21 -14 7 -25 18 -25 24
0 6 -12 22 -25 35 -14 13 -25 27 -25 33 0 5 -5 6 -12 2 -8 -5 -9 -2 -4 12 4
10 4 15 0 12 -6 -7 -64 50 -64 63 0 4 -27 33 -60 65 -33 31 -57 61 -53 67 3 6
2 7 -4 4 -6 -4 -20 5 -33 18 -13 13 -26 22 -31 20 -4 -3 -11 4 -14 16 -4 11
-9 18 -12 15 -3 -2 -10 0 -17 5 -6 6 -26 19 -44 30 -18 11 -31 23 -28 27 2 4
-11 7 -30 7 -19 -1 -37 2 -40 7 -3 4 -17 8 -32 8 -15 0 -56 9 -91 20 -35 10
-69 16 -74 13 -6 -3 -7 -1 -4 4 9 14 -36 25 -71 17 -17 -3 -22 -2 -14 3 8 6
-9 9 -45 10 -89 1 -162 7 -158 13 2 4 -16 6 -40 6 -34 -1 -52 6 -82 30 -51 40
-63 47 -63 35 0 -6 19 -23 42 -38 24 -16 47 -31 52 -35 11 -7 -72 -114 -86
-110 -5 1 -7 -2 -4 -6 3 -5 -3 -17 -13 -26 -10 -10 -21 -14 -23 -9 -3 4 -4 3
-2 -3 2 -11 -36 -40 -49 -36 -5 1 -6 -2 -2 -7 4 -8 -24 -31 -45 -37 -3 0 -12
-3 -20 -7 -8 -3 -22 -5 -30 -6 -8 0 -33 -4 -56 -10 -27 -7 -53 -7 -74 -1 -18
5 -37 7 -43 3 -6 -3 -7 -1 -3 5 4 7 1 12 -9 12 -24 0 -195 179 -195 204 0 13
-3 17 -8 9 -7 -11 -20 12 -56 102 -15 39 -19 107 -9 175 5 30 7 32 14 15 9
-18 9 -18 5 3 -5 26 17 75 29 64 5 -4 5 -1 0 7 -5 9 2 23 23 41 17 15 28 30
25 34 -4 4 1 4 11 0 13 -5 17 -4 12 4 -7 11 115 79 157 86 12 3 24 5 27 6 3 2
8 2 12 1 4 0 19 4 33 9 14 5 38 12 53 16 44 9 372 14 372 5 0 -4 28 -7 63 -6
59 2 65 0 117 -40 88 -67 138 -97 149 -90 6 3 8 0 5 -9 -3 -9 3 -17 18 -21 13
-4 25 -11 28 -15 8 -11 107 -60 122 -60 7 0 -11 11 -41 25 -30 14 -51 28 -48
31 3 4 14 3 24 -1 10 -5 23 -9 28 -11 6 -2 35 -12 65 -23 30 -11 64 -20 76
-21 11 0 24 -3 27 -7 4 -3 38 -8 75 -9 l67 -3 -100 19 c-182 36 -321 94 -469
197 -71 50 -86 56 -155 65 -42 5 -155 8 -251 5 -187 -5 -278 -22 -386 -71 -68
-31 -149 -107 -182 -171 -24 -44 -27 -61 -27 -150 0 -93 2 -105 34 -170 27
-55 57 -93 143 -179 l109 -108 108 4 c100 3 110 5 157 36 52 33 167 146 199
195 18 28 20 28 79 22 215 -24 449 -66 531 -97 89 -34 198 -132 399 -361 73
-84 147 -165 164 -181 l31 -29 108 6 c97 4 147 15 233 50 11 5 31 -19 74 -88
32 -52 62 -95 66 -95 4 0 34 19 67 43 62 47 113 101 113 121 0 17 -47 243 -58
281 -5 17 -37 87 -72 157 l-63 126 -51 -33 c-69 -44 -174 -87 -189 -78 -60 36
-261 246 -345 361 -30 42 -41 50 -60 45 -41 -10 -106 23 -130 66 -36 63 -23
125 34 170 51 40 164 19 192 -36 20 -38 24 -83 9 -112 -14 -29 -14 -30 53
-107 81 -95 255 -264 271 -264 25 0 170 86 205 121 l37 37 -74 37 c-41 21 -77
43 -82 51 -4 7 -51 68 -105 136 l-97 123 -2 253 c-2 197 0 253 10 249 7 -3 53
-22 102 -42 141 -57 301 -145 360 -197 l52 -47 80 38 c45 22 98 52 120 68 57
42 133 106 133 114 0 13 -137 167 -224 252 -50 49 -119 109 -153 133 l-62 45
-78 -62 -78 -62 -10 -79 -10 -80 -50 -19 c-39 -15 -56 -17 -79 -9 -16 5 -38
10 -50 10 -20 -1 -20 -1 3 -14 22 -12 22 -13 5 -21 -34 -13 -96 -17 -118 -7
-11 5 -37 17 -56 25 -20 9 -51 36 -69 61 -44 58 -53 52 -12 -8 36 -52 40 -55
105 -78 46 -16 75 -40 58 -46 -4 -1 -6 -30 -4 -65 5 -88 3 -120 -8 -131 -5 -5
-5 -16 0 -25 4 -9 7 -43 7 -75 l-2 -60 -47 -27 c-86 -51 -183 -74 -193 -46 -3
7 -21 12 -43 11 -39 -1 -112 -23 -112 -34 0 -11 -77 -11 -147 0 -129 20 -123
17 -121 61 1 22 -4 45 -10 51 -15 15 -16 108 -1 108 5 0 8 4 4 9 -3 6 3 15 15
21 11 6 30 26 43 45 13 20 41 53 61 75 20 22 34 40 31 40 -4 0 0 6 7 13 7 8
22 26 33 42 11 15 28 36 38 47 9 10 14 18 11 18 -3 0 1 6 8 14 7 7 20 24 28
36 37 56 56 73 104 97 28 14 70 36 94 48 24 12 43 26 41 31 -1 5 9 16 23 24
62 38 92 60 84 60 -4 0 10 15 31 33 22 17 51 46 64 64 13 17 29 29 34 25 6 -3
7 -2 3 3 -4 4 4 19 18 32 17 16 23 28 17 34 -7 7 -20 -3 -39 -28 -78 -103
-264 -255 -390 -318 -64 -33 -86 -53 -79 -73 3 -7 1 -10 -5 -7 -5 3 -17 -7
-27 -22 -37 -59 -155 -213 -223 -292 l-71 -82 19 -102 c11 -56 19 -103 18
-104 0 -1 -13 1 -28 4 -25 5 -29 12 -44 83 l-17 78 -71 59 c-111 93 -214 219
-286 350 -19 34 -40 52 -106 89 -93 52 -204 141 -248 198 -24 32 -27 41 -17
59 18 35 19 99 2 127 l-16 25 25 -18 c14 -9 60 -35 102 -57 258 -133 546 -151
863 -52 159 50 394 191 560 337 152 134 211 199 229 251 30 94 47 200 47 307
0 81 3 107 12 103 149 -63 290 -37 431 80 l58 48 -23 19 c-43 35 -139 78 -210
94 -64 14 -69 17 -55 32 45 49 86 193 86 299 0 43 -3 53 -14 49 -8 -3 -34 -11
-58 -17 -120 -33 -235 -123 -279 -218 l-24 -51 -26 59 c-126 276 -375 469
-694 535 -69 14 -306 19 -375 8z m348 -30 c5 -8 13 -9 22 -3 8 5 21 5 32 -1
10 -6 23 -7 28 -4 6 3 10 2 10 -3 0 -5 6 -9 13 -10 34 -2 157 -50 168 -65 3
-5 8 -7 11 -5 8 5 157 -99 151 -106 -4 -3 1 -6 10 -6 9 0 21 -8 26 -17 6 -10
11 -14 11 -10 0 8 35 -28 85 -86 33 -38 85 -115 85 -126 0 -6 5 -11 11 -11 5
0 7 -5 4 -10 -3 -6 1 -13 9 -16 9 -3 16 -13 16 -22 0 -8 7 -24 16 -34 13 -13
14 -21 5 -31 -9 -11 -4 -14 29 -14 24 0 39 5 38 11 -7 37 103 176 139 176 7 0
13 5 13 11 0 5 5 7 10 4 6 -3 10 -1 10 6 0 8 4 8 15 -1 13 -11 14 -10 10 2 -6
14 42 45 53 33 3 -3 16 2 30 11 13 8 27 13 30 9 11 -11 3 -122 -13 -177 -12
-39 -54 -126 -65 -133 -30 -19 0 -49 60 -60 18 -3 41 -10 50 -15 10 -5 20 -7
22 -4 6 5 94 -41 119 -62 9 -8 18 -13 20 -12 8 5 -18 -17 -53 -46 -20 -15 -40
-27 -44 -26 -3 1 -10 -3 -13 -8 -11 -17 -85 -45 -119 -44 -20 0 -30 -4 -26
-10 4 -7 -10 -8 -42 -4 -81 9 -114 18 -114 29 0 6 -3 7 -6 4 -4 -3 -15 -2 -25
4 -13 7 -19 6 -19 -2 0 -6 -6 -9 -12 -6 -10 3 -12 -17 -10 -89 2 -56 -3 -126
-12 -177 -9 -46 -16 -96 -16 -111 0 -18 -4 -25 -12 -20 -8 5 -9 2 -5 -9 3 -9
2 -19 -4 -22 -5 -4 -8 -13 -7 -20 4 -19 -228 -255 -251 -255 -5 0 -28 -18 -51
-40 -23 -22 -49 -40 -56 -40 -8 0 -14 -4 -14 -8 0 -8 -74 -54 -85 -52 -3 0
-17 -10 -30 -22 -14 -13 -39 -30 -57 -39 -96 -47 -134 -63 -141 -61 -5 1 -22
-7 -38 -18 -16 -12 -29 -19 -29 -16 0 3 -31 -6 -69 -18 -88 -31 -127 -36 -296
-41 -113 -3 -157 0 -230 16 -116 26 -102 22 -162 44 -37 13 -49 22 -40 28 8 6
6 7 -6 3 -16 -5 -102 35 -117 55 -3 3 -15 11 -28 18 -12 7 -20 17 -16 23 4 7
2 8 -5 4 -11 -7 -61 35 -61 51 0 7 -53 53 -62 53 -10 0 -76 122 -84 155 -4 17
-11 36 -17 43 -6 8 -5 12 4 12 10 0 11 2 2 8 -20 13 -45 103 -39 141 3 22 2
31 -3 22 -13 -20 -25 200 -17 312 3 50 6 106 7 122 0 26 1 28 10 10 7 -15 8
-11 4 18 -4 24 -2 37 5 37 6 0 9 4 5 10 -3 5 1 25 9 44 8 19 12 37 9 39 -2 3
1 8 8 13 8 5 10 3 4 -6 -6 -9 -4 -11 4 -6 7 5 10 15 7 23 -8 21 21 86 35 78 7
-5 7 0 -1 16 -7 13 -9 21 -5 17 4 -4 18 13 30 37 12 25 24 42 28 38 4 -3 7 -2
7 4 0 5 11 23 25 39 13 15 22 30 20 32 -8 8 114 136 180 188 28 21 52 41 55
44 3 3 12 5 20 5 8 0 26 10 40 22 14 13 30 23 35 23 6 0 16 5 22 11 12 12 107
49 131 51 6 1 12 4 12 8 0 3 8 6 18 7 9 1 35 7 57 13 97 29 186 39 323 36 96
-1 146 -6 150 -13z m-919 -2070 c13 -13 27 -23 32 -23 4 0 11 -9 14 -20 3 -11
13 -20 20 -20 8 0 34 -13 58 -30 25 -16 50 -30 57 -30 6 0 8 -5 5 -11 -4 -6
-1 -9 6 -8 32 6 71 -26 94 -76 13 -28 46 -81 74 -118 27 -37 48 -67 46 -67 -3
0 3 -8 13 -18 9 -10 23 -27 30 -38 7 -10 10 -12 7 -4 -4 8 4 2 16 -14 12 -15
28 -33 36 -40 22 -19 92 -80 105 -93 25 -23 33 -38 34 -63 1 -14 5 -35 9 -48
l7 -22 -73 26 c-148 53 -334 157 -338 188 -1 9 -2 25 -3 35 -1 11 -6 19 -11
18 -14 -3 -48 63 -41 76 4 7 3 9 -1 4 -9 -8 -30 40 -46 108 -6 22 -17 47 -26
57 -8 9 -12 21 -9 26 7 12 -29 8 -46 -5 -14 -12 -152 -55 -165 -51 -4 1 -19
-3 -33 -9 -26 -11 -183 -49 -235 -57 -16 -3 -55 -9 -85 -15 -59 -10 -85 -1
-61 22 11 10 13 9 7 -3 -4 -8 2 -3 14 13 12 15 26 25 31 22 5 -4 6 0 3 8 -3 8
0 18 5 22 6 3 9 10 6 15 -3 5 0 12 6 16 7 4 9 3 6 -3 -3 -5 0 -10 7 -10 8 0
12 6 9 13 -3 7 0 19 6 26 6 7 25 31 42 53 30 39 76 72 86 61 3 -3 20 6 38 19
17 14 39 25 48 25 9 0 19 9 22 20 4 11 10 18 15 15 5 -3 11 4 15 15 3 11 11
20 16 20 6 0 17 16 25 35 l14 35 33 -37 c17 -21 43 -48 56 -60z m1929 -10 c26
-21 54 -44 63 -53 9 -8 26 -23 38 -33 12 -10 19 -22 16 -27 -3 -5 0 -7 8 -4 8
3 18 -6 25 -21 6 -14 17 -24 24 -23 7 2 12 -2 11 -7 -1 -6 11 -19 27 -30 16
-11 32 -30 35 -43 4 -16 11 -22 21 -18 8 3 12 2 9 -3 -3 -5 4 -16 15 -24 11
-7 17 -17 14 -20 -4 -4 1 -9 10 -13 32 -12 37 -40 13 -66 -25 -27 -98 -83
-109 -83 -4 0 -16 -8 -27 -17 -11 -9 -22 -14 -25 -11 -3 4 -6 1 -6 -5 0 -7 -6
-12 -14 -12 -7 0 -19 -6 -26 -14 -6 -8 -18 -12 -26 -9 -8 3 -14 1 -14 -4 0 -5
-9 -9 -19 -9 -11 0 -17 4 -15 8 3 4 0 8 -7 8 -17 0 -79 57 -71 66 4 4 2 4 -4
1 -7 -4 -23 3 -38 14 -14 11 -31 17 -38 13 -7 -4 -10 -3 -5 1 7 8 -50 40 -65
37 -5 -1 -8 2 -8 8 0 6 -3 9 -7 8 -5 -1 -37 12 -73 29 -76 36 -102 47 -112 45
-5 -1 -8 3 -8 9 0 5 -4 8 -9 4 -5 -3 -12 -1 -15 4 -8 12 27 24 74 26 19 1 54
10 77 19 46 19 52 33 59 126 4 42 10 59 27 72 12 9 26 14 32 11 5 -4 7 -3 3 2
-7 8 67 75 84 75 5 0 31 -17 56 -37z m-493 -713 c-3 -10 -2 -36 4 -56 14 -49
4 -65 -66 -101 -93 -49 -99 -49 -100 -7 -1 20 -10 49 -22 64 l-20 28 67 27
c37 15 81 35 97 45 39 24 48 24 40 0z m35 -147 c0 -9 5 -11 13 -7 7 5 7 2 -2
-10 -8 -9 -10 -16 -5 -15 21 4 33 -2 39 -18 3 -10 23 -38 45 -61 40 -44 50
-59 28 -46 -6 4 12 -16 41 -44 29 -28 68 -57 87 -64 45 -16 60 -41 37 -59 -14
-12 -16 -12 -8 1 4 8 -6 2 -22 -13 -17 -16 -57 -41 -88 -57 l-58 -29 -29 20
c-15 11 -28 23 -28 27 0 4 -16 18 -35 31 -20 13 -43 37 -52 52 -9 15 -20 26
-25 23 -4 -3 -8 -1 -8 3 0 5 -30 40 -67 79 -38 40 -69 81 -70 93 -2 13 1 20 7
16 6 -3 10 -2 10 2 0 5 16 15 35 22 32 11 40 10 71 -8 39 -23 44 -25 44 -12 0
4 -17 15 -37 23 l-38 14 43 22 c23 13 42 27 42 32 0 5 7 7 15 4 8 -4 15 -13
15 -21z m-905 7 c3 -5 1 -10 -4 -10 -6 0 -11 5 -11 10 0 6 2 10 4 10 3 0 8 -4
11 -10z"/>
<path d="M3622 4430 c0 -14 2 -19 5 -12 2 6 2 18 0 25 -3 6 -5 1 -5 -13z"/>
<path d="M2350 4300 c0 -6 -12 -10 -27 -10 -38 0 -139 -9 -193 -17 -25 -3 -57
-6 -73 -5 -15 0 -25 -4 -22 -9 4 -5 -6 -4 -21 1 -15 6 -29 8 -32 5 -3 -3 1 -5
9 -6 22 -1 -23 -17 -49 -18 -13 -1 -38 -7 -55 -15 -73 -31 -87 -35 -92 -26 -3
4 0 11 5 13 6 3 5 4 -2 3 -7 -2 -12 -10 -10 -19 1 -8 -6 -18 -17 -22 -27 -8
-70 -60 -93 -112 -18 -41 -32 -183 -18 -183 4 0 10 -23 14 -51 4 -28 11 -58
16 -67 5 -10 11 -24 15 -32 9 -22 35 -66 35 -59 0 3 22 -16 49 -41 38 -35 67
-52 120 -69 38 -12 72 -27 75 -34 3 -8 7 -9 13 -1 6 7 33 7 93 -2 89 -14 622
-15 614 -2 -2 3 19 6 48 6 48 -1 120 10 188 28 14 4 37 7 52 8 14 0 24 4 22 7
-2 3 23 16 54 29 31 13 68 32 81 42 13 10 28 15 35 11 6 -3 8 -3 4 2 -4 4 15
33 43 64 34 39 55 74 68 114 9 31 19 55 22 53 6 -6 2 69 -6 112 -4 20 -15 53
-26 74 -11 21 -17 44 -13 50 4 7 3 8 -4 4 -7 -4 -26 6 -44 23 -18 17 -41 31
-51 31 -12 0 -16 4 -11 13 4 6 4 9 0 5 -4 -3 -32 5 -61 18 -29 14 -66 27 -82
29 -15 2 -68 11 -117 19 -113 20 -211 29 -303 30 -39 1 -69 5 -65 10 3 5 -1 6
-8 1 -20 -13 -119 -18 -100 -5 13 8 13 10 -2 10 -9 0 -20 -4 -23 -10 -3 -5
-16 -10 -28 -10 -18 0 -19 2 -7 10 13 8 12 10 -2 10 -10 0 -18 -5 -18 -10z
m376 -40 c411 -33 570 -123 568 -320 -1 -153 -107 -277 -289 -340 -182 -63
-754 -85 -999 -39 -96 18 -159 46 -209 93 -54 53 -79 98 -101 187 -31 126 -13
223 53 282 52 47 82 62 176 86 199 53 523 73 801 51z"/>
<path d="M2855 4116 c-22 -7 -51 -18 -65 -25 -34 -18 -100 -82 -100 -97 0 -28
25 -24 103 15 45 23 102 45 127 49 50 8 66 36 34 59 -22 16 -46 16 -99 -1z
m75 -27 c0 -4 -11 -9 -25 -11 -14 -3 -25 -2 -25 3 0 4 -8 10 -17 12 -10 3 1 5
25 4 23 0 42 -4 42 -8z m-78 -13 c7 5 8 2 4 -5 -5 -7 -14 -10 -22 -7 -8 3 -14
1 -14 -4 0 -6 -5 -10 -12 -10 -6 0 -20 -7 -30 -17 -10 -9 -18 -12 -18 -6 0 14
74 63 78 52 2 -5 9 -6 14 -3z"/>
<path d="M1931 4086 c-18 -22 -7 -44 26 -51 69 -14 111 -28 157 -51 50 -26 76
-26 76 0 0 20 -46 62 -94 88 -54 28 -147 36 -165 14z m104 -21 c55 -19 96 -39
106 -52 16 -19 -6 -17 -25 2 -8 9 -18 16 -21 16 -17 -1 -66 13 -70 19 -3 5
-14 6 -25 3 -11 -3 -20 0 -20 6 0 5 -8 8 -17 5 -14 -5 -15 -4 -4 4 15 11 42
10 76 -3z"/>
<path d="M2827 3949 c-28 -16 -57 -88 -57 -139 0 -136 121 -208 187 -111 65
96 15 262 -79 261 -18 0 -41 -5 -51 -11z m76 -20 c28 -13 45 -44 53 -97 3 -21
8 -40 10 -43 5 -9 -23 -76 -36 -84 -6 -4 -8 -10 -6 -14 8 -13 -73 -4 -90 10
-33 28 -49 97 -29 129 3 6 2 10 -4 10 -17 0 9 59 36 80 30 23 34 24 66 9z"/>
<path d="M2040 3918 c-69 -46 -76 -174 -14 -247 50 -60 128 -46 158 29 29 73
16 157 -31 202 -41 39 -72 43 -113 16z m89 -22 c17 -11 40 -68 42 -106 4 -62
-1 -77 -30 -109 -26 -28 -31 -29 -58 -19 -31 12 -63 57 -63 89 0 10 -3 19 -7
19 -5 0 -8 14 -9 31 -1 22 2 27 8 17 7 -9 8 -7 5 9 -5 23 25 78 36 66 4 -3 7
-1 7 6 0 12 47 10 69 -3z"/>
<path d="M3583 4170 c0 -25 2 -35 4 -22 2 12 2 32 0 45 -2 12 -4 2 -4 -23z"/>
<path d="M3394 2115 c36 -19 45 -19 20 0 -10 8 -26 14 -34 15 -8 0 -2 -7 14
-15z"/>
<path d="M5285 4689 c-384 -41 -597 -162 -879 -499 -113 -135 -196 -219 -261
-264 -109 -77 -140 -85 -355 -96 -91 -4 -173 -11 -182 -15 -28 -11 -21 -24 10
-19 46 7 123 12 227 15 163 4 290 55 381 154 12 13 25 22 28 19 3 -2 4 -2 2 1
-2 3 25 35 60 72 35 36 64 69 64 74 0 5 5 8 12 6 7 -1 13 3 13 8 3 22 18 45
25 40 5 -3 11 4 15 15 3 11 11 20 16 20 6 0 8 4 5 8 -2 4 9 17 25 27 16 11 29
26 29 33 0 7 5 10 10 7 6 -3 10 -2 10 4 0 13 77 90 84 84 2 -2 7 4 10 14 7 19
86 80 99 75 5 -1 6 1 3 6 -2 4 32 26 77 47 45 22 84 42 87 45 9 10 75 35 84
32 5 -2 12 1 15 6 8 12 162 45 223 47 25 2 51 6 58 10 7 4 59 9 116 11 107 4
123 -2 92 -35 -10 -11 -10 -12 -1 -7 9 5 9 0 -1 -21 -27 -56 -45 -99 -57 -138
-6 -22 -14 -44 -18 -50 -3 -5 -6 -14 -7 -20 -1 -5 -9 -30 -17 -55 -37 -108
-55 -206 -36 -194 7 4 7 -1 -1 -16 -8 -15 -8 -20 -1 -15 7 4 23 -19 42 -62 61
-134 64 -146 41 -139 -21 7 -238 7 -307 1 -27 -3 -62 -6 -77 -8 -16 -1 -28 -5
-28 -9 0 -3 -20 -13 -45 -21 -25 -9 -45 -14 -45 -11 0 3 -14 -4 -30 -16 -18
-13 -38 -19 -48 -15 -9 3 -13 3 -9 -1 3 -4 -10 -15 -29 -26 -20 -11 -45 -27
-55 -37 -11 -10 -37 -27 -57 -37 -20 -11 -44 -26 -52 -35 -8 -9 -21 -14 -28
-11 -7 2 -11 -2 -10 -10 2 -7 -3 -12 -9 -11 -7 2 -13 -1 -13 -6 0 -5 -9 -13
-21 -16 -11 -4 -18 -9 -15 -12 8 -8 -57 -42 -68 -35 -5 3 -6 0 -3 -5 4 -6 -7
-16 -23 -23 -17 -7 -30 -17 -30 -23 0 -6 -3 -8 -6 -4 -3 3 -30 -7 -59 -23 -39
-21 -55 -26 -64 -17 -8 8 -11 8 -11 0 0 -30 -230 -41 -415 -19 -88 11 -228 15
-210 7 32 -14 321 -41 436 -41 193 0 286 37 542 216 177 123 287 183 387 211
53 15 101 18 261 17 176 0 196 1 188 15 -4 9 -33 72 -63 140 l-56 125 15 55
c27 103 128 385 155 433 5 9 6 19 2 21 -13 8 -165 5 -247 -4z"/>
<path d="M3610 3765 c0 -8 2 -15 4 -15 2 0 6 7 10 15 3 8 1 15 -4 15 -6 0 -10
-7 -10 -15z"/>
<path d="M1505 3551 c-42 -11 -88 -41 -117 -76 -28 -33 -48 -82 -29 -71 6 4
11 13 11 20 0 19 61 81 100 101 24 13 56 19 103 18 37 0 66 2 63 4 -8 9 -102
12 -131 4z"/>
<path d="M3505 3470 c-3 -5 -1 -10 4 -10 6 0 11 5 11 10 0 6 -2 10 -4 10 -3 0
-8 -4 -11 -10z"/>
<path d="M3675 3468 c17 -6 33 -15 36 -21 4 -5 14 -7 23 -4 8 3 22 -1 31 -9 8
-8 19 -12 25 -9 5 3 10 1 10 -6 0 -7 3 -10 6 -6 3 3 27 -6 54 -19 26 -13 51
-24 56 -24 4 0 15 -7 25 -16 9 -8 23 -17 31 -18 44 -9 67 -19 62 -28 -3 -5 0
-9 7 -7 28 3 50 -1 45 -9 -8 -13 17 -15 179 -15 144 -1 154 1 233 31 45 17 83
31 85 30 1 0 42 12 90 27 48 14 109 29 135 31 67 7 164 7 182 0 8 -2 40 -7 71
-10 31 -3 83 -17 115 -32 33 -14 66 -27 74 -28 8 -1 23 -5 33 -9 9 -4 24 -9
33 -12 8 -3 12 -10 8 -16 -4 -8 -3 -9 4 -5 6 4 32 -3 57 -14 39 -18 44 -24 35
-36 -7 -8 -19 -14 -27 -14 -8 0 -11 -4 -8 -10 3 -5 0 -10 -8 -10 -8 0 -20 -7
-27 -15 -7 -8 -15 -13 -19 -10 -4 2 -19 -7 -34 -21 -15 -13 -30 -25 -34 -26
-22 -3 -115 -73 -107 -80 2 -3 -2 -17 -9 -31 -8 -15 -17 -23 -21 -19 -4 4 -6
3 -5 -3 5 -13 -34 -105 -43 -105 -5 0 -8 -5 -8 -11 0 -14 -45 -109 -62 -133
-14 -18 -16 -17 -49 11 -31 26 -131 89 -136 85 -2 0 -20 6 -40 15 -21 8 -73
26 -116 39 -72 21 -113 29 -202 38 -17 2 -55 9 -85 15 -30 6 -76 13 -103 16
-31 4 -45 10 -41 17 5 8 1 9 -10 5 -10 -4 -23 -4 -29 0 -7 4 -20 9 -30 10 -10
2 -28 9 -40 17 -12 8 -31 16 -42 18 -18 3 -39 13 -143 69 -18 9 -39 22 -46 28
-7 6 -15 8 -19 5 -3 -3 -10 4 -16 15 -7 13 -17 18 -28 14 -12 -5 -14 -3 -8 7
5 9 4 11 -3 6 -7 -4 -27 4 -44 17 -46 34 -63 43 -54 29 13 -21 -15 -13 -73 22
-57 35 -176 96 -186 96 -3 0 -5 -9 -5 -21 0 -11 5 -17 10 -14 6 4 27 1 46 -5
39 -13 137 -70 142 -82 2 -5 10 -8 18 -8 8 0 14 -4 14 -10 0 -5 -3 -10 -7 -10
-5 0 -23 -14 -41 -31 -17 -16 -37 -27 -42 -24 -6 3 -10 0 -10 -8 0 -14 -27
-32 -42 -29 -5 1 -7 -1 -7 -6 3 -19 -2 -43 -8 -39 -5 3 -6 -24 -5 -60 3 -45 0
-63 -7 -59 -6 4 -11 2 -11 -3 0 -6 -6 -11 -14 -11 -19 0 -110 -39 -104 -45 2
-2 39 5 81 16 l77 21 0 77 1 76 89 68 c104 78 75 81 251 -26 188 -114 284
-146 560 -192 261 -43 387 -88 504 -179 39 -31 61 -43 64 -34 5 16 96 209 140
299 l33 65 144 85 c79 46 143 87 144 90 0 11 -202 100 -305 135 -128 42 -245
57 -349 44 -93 -12 -120 -19 -291 -75 -157 -52 -258 -68 -342 -55 -77 13 -114
26 -246 89 -120 57 -243 101 -279 100 -20 0 -20 -2 7 -11z"/>
<path d="M1279 3346 c-144 -89 -236 -174 -266 -244 -9 -22 -16 -66 -16 -108 0
-58 5 -83 27 -128 30 -62 66 -92 133 -112 79 -24 84 -22 167 76 42 49 76 92
76 95 0 3 -6 5 -13 5 -25 0 -88 63 -114 114 -26 51 -31 96 -17 160 5 24 4 27
-7 16 -8 -7 -15 -22 -16 -34 0 -11 -3 -47 -6 -79 -3 -32 -2 -56 0 -53 5 5 63
-68 63 -79 0 -3 9 -14 20 -25 11 -11 20 -17 20 -14 0 3 7 -1 15 -10 14 -14 14
-17 -2 -35 -10 -11 -36 -43 -58 -71 -40 -52 -40 -52 -87 -47 -49 6 -99 28
-128 56 -50 46 -62 209 -23 286 24 46 73 98 115 122 15 10 28 21 28 26 0 4 5
5 10 2 6 -3 10 -2 10 2 0 5 23 21 50 36 56 30 58 28 41 -45 -5 -21 -6 -36 -2
-34 3 3 19 -26 34 -62 22 -52 38 -75 73 -101 45 -34 52 -53 21 -59 -23 -5 -94
64 -107 104 -6 19 -15 34 -18 34 -4 0 -8 14 -9 30 -1 17 -7 38 -12 48 -8 14
-10 10 -11 -20 0 -75 64 -178 135 -215 29 -15 30 -15 57 18 l28 33 -27 14
c-41 21 -82 62 -104 104 -26 50 -35 145 -19 192 6 21 10 39 8 40 -1 1 -33 -16
-69 -38z"/>
<path d="M1508 3023 c6 -2 18 -2 25 0 6 3 1 5 -13 5 -14 0 -19 -2 -12 -5z"/>
<path d="M2138 2993 c7 -3 16 -2 19 1 4 3 -2 6 -13 5 -11 0 -14 -3 -6 -6z"/>
<path d="M2914 2985 c3 -10 -1 -15 -12 -15 -10 0 -22 -4 -27 -9 -6 -5 -21 -11
-35 -13 -27 -3 -113 -85 -104 -99 3 -5 0 -9 -5 -9 -6 0 -11 -7 -11 -15 0 -8
-6 -15 -13 -15 -8 0 -19 -11 -25 -24 -9 -21 -53 -73 -118 -142 -12 -13 -21
-24 -20 -26 0 -2 -7 7 -17 19 -10 13 -22 21 -27 18 -4 -3 -18 11 -31 30 -13
19 -27 35 -31 35 -5 0 -8 5 -8 10 0 6 -18 28 -40 50 -24 24 -38 46 -34 53 4 7
4 9 -1 5 -10 -9 -35 21 -34 42 0 10 3 8 9 -5 5 -11 9 -14 9 -6 1 9 9 11 26 7
14 -4 25 -2 25 3 0 5 -19 12 -42 16 -24 4 -56 17 -73 29 -16 11 -34 22 -40 22
-5 1 -21 5 -34 9 -16 5 -21 4 -17 -4 4 -6 24 -16 44 -22 30 -9 47 -26 91 -91
30 -44 92 -118 138 -165 l84 -86 25 24 c34 32 170 201 214 267 19 28 42 52 50
52 20 0 119 48 102 49 -7 1 -10 6 -7 11 3 6 1 10 -5 10 -7 0 -10 -7 -6 -15z"/>
<path d="M2655 2888 c-33 -5 -104 -8 -158 -6 -53 2 -97 0 -97 -4 0 -5 4 -8 9
-8 5 0 11 -9 14 -20 3 -11 11 -20 17 -20 7 0 10 6 7 14 -5 12 11 15 85 18 49
2 92 -1 95 -6 3 -4 9 -3 13 4 4 7 26 13 48 14 22 1 38 4 36 8 -2 3 4 9 13 11
31 8 -16 5 -82 -5z"/>
<path d="M2605 2840 c-3 -5 -1 -10 4 -10 6 0 11 5 11 10 0 6 -2 10 -4 10 -3 0
-8 -4 -11 -10z"/>
<path d="M2590 2809 c0 -5 5 -7 10 -4 6 3 10 8 10 11 0 2 -4 4 -10 4 -5 0 -10
-5 -10 -11z"/>
<path d="M2489 2773 c18 -24 38 -46 44 -50 15 -9 -9 22 -47 62 -27 28 -27 27
3 -12z"/>
<path d="M1285 2750 c-19 -7 -19 -8 -2 -15 19 -8 31 -2 26 13 -2 5 -13 6 -24
2z"/>
<path d="M4220 2701 c0 -5 5 -13 10 -16 6 -3 10 -2 10 4 0 5 -4 13 -10 16 -5
3 -10 2 -10 -4z"/>
<path d="M4202 2626 c-58 -58 -168 -128 -231 -147 -39 -11 -40 -13 -25 -30 9
-10 50 -36 93 -58 72 -37 78 -39 108 -26 81 34 193 126 193 159 0 19 -38 91
-70 132 -16 22 -16 22 -68 -30z m66 -12 c2 -10 9 -23 16 -29 31 -24 34 -49 12
-82 -20 -31 -126 -118 -110 -91 4 8 0 7 -12 -3 -10 -9 -27 -19 -37 -22 -17 -7
-105 28 -140 55 -17 13 -17 15 10 28 15 8 31 19 35 25 5 6 8 6 8 -1 0 -6 7
-11 15 -11 8 0 12 4 9 8 -4 7 47 49 61 49 4 0 16 11 27 25 11 14 23 23 27 20
4 -2 18 9 30 26 24 33 44 34 49 3z"/>
<path d="M4110 2460 c-8 -5 -12 -12 -9 -15 4 -3 12 1 19 10 14 17 11 19 -10 5z"/>
<path d="M4047 2428 c2 -5 13 -8 24 -8 10 0 19 3 19 8 0 4 -11 7 -24 7 -13 0
-22 -3 -19 -7z"/>
<path d="M3155 2600 c-3 -5 1 -10 10 -10 9 0 13 5 10 10 -3 6 -8 10 -10 10 -2
0 -7 -4 -10 -10z"/>
<path d="M2495 2580 c10 -11 20 -20 23 -20 3 0 -3 9 -13 20 -10 11 -20 20 -23
20 -3 0 3 -9 13 -20z"/>
<path d="M4350 2575 c0 -4 17 -26 38 -50 88 -100 82 -216 -15 -306 -91 -85
-174 -100 -235 -44 -17 16 -33 21 -51 18 -45 -9 -76 6 -103 47 -24 36 -26 47
-21 97 4 38 3 52 -3 43 -19 -29 -11 -112 13 -147 28 -41 77 -66 113 -57 19 5
31 2 38 -8 15 -19 71 -38 115 -38 57 0 143 62 192 139 54 83 31 219 -47 284
-19 16 -34 26 -34 22z"/>
<path d="M3900 2490 c20 -13 33 -13 25 0 -3 6 -14 10 -23 10 -15 0 -15 -2 -2
-10z"/>
<path d="M2973 2288 c-29 -14 -56 -73 -48 -105 27 -111 195 -89 195 25 0 71
-78 113 -147 80z m80 -21 c-4 -6 0 -8 11 -4 9 4 15 3 12 -2 -3 -5 1 -12 10
-15 9 -4 14 -9 11 -13 -4 -3 -2 -14 4 -24 6 -13 6 -19 -1 -19 -5 0 -10 -5 -10
-12 0 -24 -34 -48 -67 -48 -42 0 -73 30 -73 70 0 37 27 81 45 74 7 -3 16 -1
19 4 3 6 15 8 26 5 11 -3 17 -10 13 -16z"/>
<path d="M3505 2151 c-3 -5 -2 -12 3 -15 5 -3 9 1 9 9 0 17 -3 19 -12 6z"/>
<path d="M2704 2116 c11 -9 29 -16 40 -15 17 1 16 2 -6 9 -14 4 -32 11 -40 15
-7 3 -4 -1 6 -9z"/>
<path d="M3101 2099 c-23 -19 -23 -19 -2 -19 12 0 24 7 28 15 9 24 0 25 -26 4z"/>
<path d="M2790 2090 c25 -8 107 -13 99 -6 -2 2 -31 6 -64 9 -37 3 -51 2 -35
-3z"/>
<path d="M1978 1933 c7 -3 16 -2 19 1 4 3 -2 6 -13 5 -11 0 -14 -3 -6 -6z"/>
<path d="M3745 1916 l26 -24 -21 -34 c-11 -18 -20 -29 -20 -24 0 12 -29 -26
-30 -38 0 -5 12 5 28 21 44 50 73 85 70 88 -6 4 -71 35 -75 35 -2 0 8 -11 22
-24z"/>
<path d="M2095 1910 c27 -12 43 -12 25 0 -8 5 -22 9 -30 9 -10 0 -8 -3 5 -9z"/>
<path d="M2228 1873 c7 -3 16 -2 19 1 4 3 -2 6 -13 5 -11 0 -14 -3 -6 -6z"/>
<path d="M2260 1870 c0 -5 5 -10 11 -10 5 0 7 5 4 10 -3 6 -8 10 -11 10 -2 0
-4 -4 -4 -10z"/>
<path d="M2076 1806 c13 -34 -162 -223 -241 -261 -27 -12 -64 -18 -117 -19
-43 -1 -78 -2 -78 -3 0 -1 102 -76 107 -77 1 -1 9 -46 18 -101 43 -253 95
-314 220 -256 123 56 243 290 262 511 6 77 -4 93 -95 163 -74 57 -83 62 -76
43z m64 -66 c16 -16 30 -27 30 -24 0 3 12 -7 27 -22 25 -25 42 -101 19 -87 -5
4 -7 -1 -3 -10 15 -39 -48 -267 -84 -306 -11 -11 -17 -21 -14 -21 3 0 -2 -14
-10 -30 -9 -17 -20 -28 -24 -25 -5 3 -7 -4 -4 -15 4 -14 0 -20 -11 -20 -9 0
-16 -7 -16 -17 0 -9 -3 -14 -6 -10 -3 3 -17 -4 -31 -16 -13 -12 -28 -22 -31
-22 -4 -1 -16 -6 -27 -12 -22 -12 -85 -6 -85 8 0 5 -4 8 -9 7 -5 -2 -10 2 -11
7 -1 6 -7 19 -13 30 -6 11 -10 26 -9 33 2 6 -2 12 -8 12 -6 0 -8 5 -5 10 4 6
1 26 -5 44 -12 39 -17 61 -24 128 l-5 47 37 4 37 4 -40 -1 c-33 -1 -45 5 -66
29 l-27 30 46 11 c35 9 49 9 54 1 5 -8 9 -6 14 6 3 9 9 15 13 13 4 -3 28 15
54 39 26 23 47 41 47 40 0 -4 66 64 108 110 17 20 32 41 32 46 0 17 19 9 50
-21z"/>
<path d="M1880 1455 c-14 -8 -20 -14 -15 -14 6 0 21 6 35 14 14 8 21 14 15 14
-5 0 -21 -6 -35 -14z"/>
<path d="M2500 1816 c0 -2 7 -7 16 -10 8 -3 12 -2 9 4 -6 10 -25 14 -25 6z"/>
<path d="M3610 1671 c0 -5 7 -12 16 -15 14 -5 15 -4 4 9 -14 17 -20 19 -20 6z"/>
<path d="M3677 1609 c7 -7 15 -10 18 -7 3 3 -2 9 -12 12 -14 6 -15 5 -6 -5z"/>
<path d="M1604 1555 c8 -8 18 -15 22 -15 3 0 1 7 -6 15 -7 8 -17 15 -22 15 -5
0 -3 -7 6 -15z"/>
<path d="M3730 1559 c0 -5 5 -7 10 -4 6 3 10 8 10 11 0 2 -4 4 -10 4 -5 0 -10
-5 -10 -11z"/>
<path d="M3880 1161 c0 -6 4 -13 10 -16 6 -3 7 1 4 9 -7 18 -14 21 -14 7z"/>
<path d="M3500 1138 c-14 -6 -71 -11 -127 -12 -113 -1 -113 0 -23 -60 84 -57
136 -110 165 -167 85 -170 229 -287 364 -297 57 -4 70 -1 94 18 44 35 60 76
59 155 -1 82 -24 156 -83 264 -23 42 -43 77 -44 79 -2 2 -25 -19 -52 -45 -40
-39 -155 -113 -175 -113 -3 0 -33 43 -67 95 -35 52 -68 95 -74 94 -7 0 -23 -5
-37 -11z m54 -33 c11 -8 16 -15 12 -15 -4 0 4 -15 18 -33 15 -19 26 -39 26
-45 0 -6 6 -15 13 -19 8 -4 24 -23 37 -41 l24 -32 26 25 c14 14 30 25 34 25 4
0 22 10 39 22 31 23 35 24 59 27 6 0 8 4 5 7 -4 4 5 17 20 30 25 21 28 22 40
6 7 -9 13 -22 13 -29 0 -6 4 -13 8 -15 14 -6 63 -119 56 -130 -5 -7 -2 -8 6
-3 9 6 10 2 5 -15 -4 -14 -3 -20 3 -16 6 3 10 -23 10 -70 1 -53 -2 -73 -10
-68 -7 5 -9 2 -6 -8 4 -8 -1 -29 -9 -46 -12 -26 -23 -32 -59 -38 -24 -3 -56
-3 -71 0 -38 9 -133 56 -133 65 0 4 -12 13 -26 19 -15 7 -22 17 -18 24 4 6 3
8 -4 5 -5 -4 -22 8 -36 25 -14 18 -32 40 -40 48 -21 23 -56 83 -56 97 0 6 8
13 18 15 11 3 4 8 -21 17 -30 10 -38 17 -34 32 3 11 1 17 -4 14 -4 -3 -26 12
-48 34 -22 22 -54 47 -71 56 -18 9 -30 18 -28 20 2 3 29 5 60 6 31 1 63 6 70
10 20 13 51 10 72 -6z"/>
</g>
</svg>
